IKResults
version=1
nRows=29
nColumns=24
inDegrees=yes

Units are S.I. units (second, meters, Newtons, ...)
If the header above contains a line with 'inDegrees', this indicates whether rotational values are in degrees (yes) or radians (no).

endheader
time	pelvis_tilt	pelvis_list	pelvis_rotation	pelvis_tx	pelvis_ty	pelvis_tz	hip_flexion_r	hip_adduction_r	hip_rotation_r	knee_angle_r	ankle_angle_r	subtalar_angle_r	mtp_angle_r	hip_flexion_l	hip_adduction_l	hip_rotation_l	knee_angle_l	ankle_angle_l	subtalar_angle_l	mtp_angle_l	lumbar_extension	lumbar_bending	lumbar_rotation
      3.34500000	     10.35440169	      2.02858327	   -177.01769360	      0.32080647	      0.41744623	     -1.19871832	     95.18285591	    -37.83875904	      0.52930538	   -126.79071693	     40.38258663	      8.36146694	      0.00000000	     99.58603471	    -36.04735860	      5.03410990	   -126.52069683	     41.33413286	     23.27989989	      0.00000000	    -20.48955156	      2.58314499	      2.40467246
      3.35000000	     11.49624844	      3.06392104	   -177.42265201	      0.32126206	      0.41869826	     -1.19993215	     95.00534874	    -37.16723703	     -1.32644579	   -126.19850457	     40.20217543	      7.77167675	      0.00000000	    101.41537299	    -36.17656131	      6.37542503	   -126.07252292	     41.10381781	     23.19444370	      0.00000000	    -19.10854425	      3.47256930	      2.94703108
      3.35500000	     10.27196172	      1.41090388	   -176.74822432	      0.32092968	      0.42561125	     -1.19801877	     94.33556785	    -38.00957246	      0.69646787	   -125.56521425	     40.14628160	      8.32165663	      0.00000000	     97.44566424	    -35.58603931	      3.27901716	   -125.21271145	     41.20389126	     22.84552817	      0.00000000	    -20.66706457	      2.08035162	      1.85561079
      3.36000000	     11.61480800	      2.69495394	   -177.22548526	      0.32164679	      0.42667020	     -1.19972247	     94.17699653	    -37.14841721	     -1.56967051	   -124.94392601	     39.89088415	      7.44228724	      0.00000000	     99.76438468	    -35.81785160	      4.99914409	   -124.72779136	     40.86114026	     22.73357408	      0.00000000	    -19.04621913	      3.12577231	      2.57576732
      3.36500000	     11.63793870	      2.58087757	   -177.22013975	      0.32157943	      0.43078123	     -1.19962498	     93.63670892	    -37.08153718	     -1.80227061	   -124.30390124	     39.73419968	      7.37225663	      0.00000000	     98.96475824	    -35.73923335	      4.44547485	   -124.08154432	     40.75670675	     22.57952994	      0.00000000	    -19.02664836	      3.01161215	      2.48505107
      3.37000000	     11.20783535	      1.95510058	   -177.05447672	      0.32106966	      0.43600429	     -1.19838432	     92.96709915	    -37.35367661	     -1.25872467	   -123.61370213	     39.62900908	      7.62787857	      0.00000000	     97.01541830	    -35.50353158	      3.00419347	   -123.41869187	     40.81340922	     22.28280725	      0.00000000	    -19.51785838	      2.54286181	      2.15132050
      3.37500000	     11.43659998	      2.00896373	   -177.07017857	      0.32120733	      0.44002539	     -1.19841621	     92.46395423	    -37.22131263	     -1.74753036	   -122.88725637	     39.47674311	      7.51142205	      0.00000000	     96.58599869	    -35.39034274	      2.66704062	   -122.71663754	     40.66441858	     22.09553491	      0.00000000	    -19.26214622	      2.59507440	      2.13571884
      3.38000000	     11.56944271	      1.97804438	   -177.06918546	      0.32123390	      0.44427133	     -1.19839357	     91.90798312	    -37.12496698	     -2.12500944	   -122.15530261	     39.32312557	      7.41987460	      0.00000000	     95.95487396	    -35.27483866	      2.21014342	   -122.00216161	     40.50644780	     21.91756614	      0.00000000	    -19.10882066	      2.57831191	      2.06753317
      3.38500000	     11.89988259	      2.16212131	   -177.10943015	      0.32132429	      0.44820746	     -1.19842227	     91.40565099	    -36.96400268	     -2.79928188	   -121.40426538	     39.09178127	      7.23217995	      0.00000000	     95.75457622	    -35.16183591	      2.06008991	   -121.30143598	     40.35172651	     21.68778062	      0.00000000	    -18.70685255	      2.76598152	      2.12853356
      3.39000000	     11.98507683	      2.02808647	   -176.98469270	      0.32148883	      0.45281938	     -1.19842290	     90.87311084	    -36.98615789	     -3.06730305	   -120.66149687	     38.93487397	      7.10144326	      0.00000000	     94.94722723	    -34.91045984	      1.43901855	   -120.48294393	     40.18107669	     21.49033162	      0.00000000	    -18.63262185	      2.62877902	      1.93468711
      3.39500000	     12.15220223	      2.04902715	   -176.99463858	      0.32142631	      0.45721151	     -1.19837584	     90.30904867	    -36.89821298	     -3.54349449	   -119.90400430	     38.72616957	      7.00740430	      0.00000000	     94.37772225	    -34.79595235	      1.04858140	   -119.74278749	     40.02132827	     21.32079073	      0.00000000	    -18.40643366	      2.64467397	      1.92976754
      3.40000000	     12.34527264	      2.16257276	   -177.16762369	      0.32113714	      0.46159344	     -1.19829240	     89.66904121	    -36.64652507	     -4.12780239	   -119.09501847	     38.52402385	      6.94405354	      0.00000000	     93.90216555	    -34.86743089	      0.78286007	   -119.03456452	     39.92687645	     21.18971229	      0.00000000	    -18.12950694	      2.77960803	      2.03931874
      3.40500000	     12.50608396	      2.19359662	   -177.17428599	      0.32106386	      0.46616906	     -1.19826288	     89.03560225	    -36.53682183	     -4.62169448	   -118.26814684	     38.33147008	      6.87988710	      0.00000000	     93.32126987	    -34.76482010	      0.38447014	   -118.25072205	     39.71556965	     21.06772107	      0.00000000	    -17.90675078	      2.81812807	      2.03587190
      3.41000000	     12.61276565	      2.15470922	   -177.07040664	      0.32112574	      0.47111718	     -1.19837939	     88.38438651	    -36.52325191	     -5.05356399	   -117.42694914	     38.08638324	      6.82039503	      0.00000000	     92.59069316	    -34.54958458	     -0.11634633	   -117.36006938	     39.45892572	     20.91696241	      0.00000000	    -17.77518982	      2.77515155	      1.88635819
      3.41500000	     12.75954086	      2.14892373	   -177.10022966	      0.32098989	      0.47596041	     -1.19835718	     87.74096256	    -36.39592699	     -5.52708643	   -116.57572566	     37.90770850	      6.77573371	      0.00000000	     91.92497844	    -34.46103269	     -0.57376796	   -116.52436386	     39.28338021	     20.74036022	      0.00000000	    -17.56144336	      2.76780215	      1.88852649
      3.42000000	     12.86382556	      2.16519857	   -177.13212962	      0.32079064	      0.48089252	     -1.19837990	     87.05082723	    -36.27959887	     -6.03937855	   -115.72951606	     37.67536169	      6.71294540	      0.00000000	     91.24018842	    -34.39805165	     -0.99401331	   -115.67967359	     39.09681665	     20.60781392	      0.00000000	    -17.37983508	      2.77282718	      1.89314599
      3.42500000	     12.96961588	      2.27306595	   -177.29566815	      0.32030196	      0.48577617	     -1.19830081	     86.26805950	    -36.03815863	     -6.65141356	   -114.84940996	     37.48999503	      6.65581923	      0.00000000	     90.60932861	    -34.48159615	     -1.30395594	   -114.90788585	     38.99145693	     20.49218395	      0.00000000	    -17.15459306	      2.90209078	      2.03134484
      3.43000000	     13.04100306	      2.26442840	   -177.31484482	      0.32007368	      0.49085356	     -1.19834584	     85.53379515	    -35.92424461	     -7.14135907	   -113.96488505	     37.24143390	      6.61097176	      0.00000000	     89.83660440	    -34.39941683	     -1.76782257	   -114.02062076	     38.79813862	     20.38873060	      0.00000000	    -17.00662490	      2.88471761	      1.98505790
      3.43500000	     13.07909155	      2.17879727	   -177.20947124	      0.32001954	      0.49617597	     -1.19846001	     84.81011882	    -35.92829001	     -7.55029867	   -113.06706311	     36.96611214	      6.56448317	      0.00000000	     88.95797006	    -34.17442035	     -2.33823741	   -113.06156276	     38.53134632	     20.26162747	      0.00000000	    -16.92750921	      2.79343378	      1.82059657
      3.44000000	     13.11214420	      2.16568184	   -177.23990033	      0.31964381	      0.50148152	     -1.19849447	     84.01310568	    -35.80962953	     -8.03447669	   -112.15876209	     36.77145150	      6.34777153	      0.00000000	     88.12247592	    -34.10608259	     -2.81935735	   -112.15991086	     38.33119432	     20.12776739	      0.00000000	    -16.79731345	      2.79037681	      1.79895159
      3.44500000	     13.16873294	      2.22691657	   -177.39125162	      0.31905245	      0.50666730	     -1.19845368	     83.20021588	    -35.56835984	     -8.59132193	   -111.23270990	     36.54459738	      6.31436093	      0.00000000	     87.37153030	    -34.17249748	     -3.20418977	   -111.31822807	     38.18289979	     20.04521968	      0.00000000	    -16.60152056	      2.84976512	      1.95759013
      3.45000000	     13.17514903	      2.21247994	   -177.42866323	      0.31861001	      0.51212421	     -1.19848944	     82.35364003	    -35.42620763	     -9.09645136	   -110.28380894	     36.32176423	      6.28478688	      0.00000000	     86.49395849	    -34.10561528	     -3.68732135	   -110.38674297	     37.94647585	     19.93539684	      0.00000000	    -16.49006168	      2.82754266	      1.94688432
      3.45500000	     13.17943378	      2.12124790	   -177.34167453	      0.31842282	      0.51775932	     -1.19862892	     81.55360098	    -35.38831920	     -9.53177047	   -109.31353280	     36.05448786	      6.38815724	      0.00000000	     85.55340200	    -33.87215936	     -4.25284342	   -109.35926418	     37.66230633	     19.79810335	      0.00000000	    -16.41841766	      2.71611945	      1.82046513
      3.46000000	     13.28756712	      2.06479875	   -177.36023415	      0.31803169	      0.52331938	     -1.19865782	     80.84309996	    -35.24798931	     -9.93601464	   -108.31744094	     35.71264386	      6.31045851	      0.00000000	     84.70929795	    -33.74224999	     -4.81624671	   -108.35241440	     37.38988282	     19.67853732	      0.00000000	    -16.18886430	      2.66131197	      1.80793000
      3.46500000	     13.32369350	      2.16536794	   -177.87906321	      0.31701274	      0.52879752	     -1.19814012	     79.99231048	    -34.67095418	    -10.42702985	   -107.22395601	     35.36104962	      6.50523443	      0.00000000	     83.92950468	    -34.28595091	     -5.32669156	   -107.62065389	     37.15501296	     19.80876819	      0.00000000	    -15.97300217	      2.84471693	      2.25133788
      3.47000000	     13.07278477	      2.01533371	   -177.34698431	      0.31701243	      0.53466182	     -1.19880885	     78.91448028	    -34.99923766	    -10.93015096	   -106.38263246	     35.17051857	      6.38089077	      0.00000000	     82.74044668	    -33.49993069	     -5.74320062	   -106.41251134	     36.82176433	     19.46464673	      0.00000000	    -16.18540697	      2.60536781	      1.72070948
      3.47500000	     13.11558236	      1.96420554	   -177.44428505	      0.31643589	      0.54038660	     -1.19880659	     78.14206427	    -34.76899611	    -11.34222477	   -105.36021382	     34.84302799	      6.36384714	      0.00000000	     81.83362750	    -33.43137740	     -6.28028049	   -105.40928006	     36.51462698	     19.29535874	      0.00000000	    -16.00192598	      2.54419659	      1.75919331
      3.48000000	     13.08496451	      1.90229133	   -177.47148293	      0.31583316	      0.54615205	     -1.19878623	     77.28739970	    -34.60835248	    -11.75662391	   -104.34653329	     34.52735213	      6.31520594	      0.00000000	     80.86016149	    -33.28984463	     -6.81018790	   -104.40403984	     36.21130472	     19.12823529	      0.00000000	    -15.89295853	      2.48132599	      1.77086704
      3.48500000	     13.07454108	      1.85815839	   -177.49038623	      0.31524255	      0.55204921	     -1.19878463	     76.43739363	    -34.43598589	    -12.22562503	   -103.32905835	     34.08040655	      6.04851553	      0.00000000	     79.89414273	    -33.12432263	     -7.32328345	   -103.30876919	     35.91019824	     18.99795614	      0.00000000	    -15.76425571	      2.44909851	      1.74290430
